<svg width="22" height="19" viewBox="0 0 22 19" fill="none" xmlns="http://www.w3.org/2000/svg">
<path d="M10.4686 0.397708C10.7232 0.652438 10.8663 0.997878 10.8663 1.35807C10.8663 1.71825 10.7232 2.06369 10.4686 2.31842L4.63714 8.14984H20.375C20.7353 8.14984 21.0808 8.29296 21.3356 8.5477C21.5903 8.80244 21.7334 9.14794 21.7334 9.5082C21.7334 9.86846 21.5903 10.214 21.3356 10.4687C21.0808 10.7234 20.7353 10.8666 20.375 10.8666H4.63714L10.4686 16.698C10.716 16.9542 10.8529 17.2973 10.8498 17.6534C10.8467 18.0096 10.7039 18.3503 10.452 18.6021C10.2002 18.854 9.85947 18.9969 9.50331 18.9999C9.14716 19.003 8.80403 18.8661 8.54784 18.6187L0.397708 10.4686C0.143056 10.2138 0 9.86839 0 9.5082C0 9.14801 0.143056 8.80257 0.397708 8.54784L8.54784 0.397708C8.80257 0.143056 9.14801 0 9.5082 0C9.86839 0 10.2138 0.143056 10.4686 0.397708Z" fill="#20463C"/>
</svg>
