<svg width="77" height="25" viewBox="0 0 77 25" fill="none" xmlns="http://www.w3.org/2000/svg">
<path d="M16.4806 18.4C16.4806 10.4762 22.9041 4.05259 30.828 4.05259H44.849C53.951 4.05259 61.3297 11.4312 61.3297 20.5333H16.4806V18.4Z" fill="#199675" fill-opacity="0.56"/>
<path d="M49.3474 12.1579C47.1615 12.1579 45.3629 10.0249 47.1731 8.79955C47.8205 8.36127 48.6014 8.10528 49.4421 8.10528H57.007C57.8477 8.10528 58.6286 8.36127 59.276 8.79955C61.0862 10.0249 59.2876 12.1579 57.1017 12.1579H49.3474Z" fill="#199675"/>
<path d="M57.007 15.9051C57.007 15.0293 57.7169 14.3193 58.5928 14.3193H61.3298V18.3719H59.4738C58.1114 18.3719 57.007 17.2675 57.007 15.9051Z" fill="#38957C"/>
<path d="M70.3906 8.10528L68.5329 13.6125L77 15.8503L68.5329 18.0881L70.3906 24.3158L63.221 18.0881V13.6125L70.3906 8.10528Z" fill="#199675"/>
<path d="M30.2596 20.3982C30.2596 22.711 28.2033 24.5859 25.6667 24.5859C23.13 24.5859 21.0737 22.711 21.0737 20.3982C21.0737 18.0854 23.13 16.2105 25.6667 16.2105C28.2033 16.2105 30.2596 18.0854 30.2596 20.3982Z" fill="#20463C"/>
<path d="M54.0352 21.2087C54.0352 23.0739 52.4627 24.5859 50.5229 24.5859C48.5831 24.5859 47.0106 23.0739 47.0106 21.2087C47.0106 19.3436 48.5831 17.8315 50.5229 17.8315C52.4627 17.8315 54.0352 19.3436 54.0352 21.2087Z" fill="#20463C"/>
<path d="M5.29343 1.18201C5.15683 1.01456 5.14141 0.777465 5.25525 0.59513C5.42277 0.326822 5.79259 0.286704 6.01568 0.512639L8.07436 2.59751C8.18457 2.70912 8.30357 2.81137 8.43016 2.90323L8.94102 3.27392C9.72711 3.84433 10.5625 4.34346 11.4373 4.76537L11.9338 5.0048L14.0111 5.72738C14.3054 5.82976 14.4295 6.18485 14.2638 6.4503C14.1504 6.632 13.9321 6.71494 13.7279 6.65396L11.9855 6.13368C10.9947 5.83781 10.0421 5.42036 9.14902 4.89059C8.78838 4.67667 8.44605 4.4321 8.12573 4.15953L7.75253 3.84197C7.12327 3.30651 6.5431 2.714 6.01927 2.07183L5.29343 1.18201Z" fill="white"/>
<path d="M0.961405 1.22624C0.788889 1.04184 0.76126 0.762608 0.894426 0.549322C1.0738 0.262024 1.46545 0.209697 1.71553 0.439616L5.18107 3.6257L7.89465 5.5464L10.4411 6.86703L13.5262 8.13164C13.836 8.25865 13.9581 8.63991 13.7801 8.9249C13.6474 9.13751 13.3868 9.22708 13.1526 9.14059L11.0825 8.37603C9.44308 7.77054 7.86287 7.00824 6.36321 6.09946L5.93483 5.83987L4.43759 4.63964C3.68462 4.03603 2.97492 3.37845 2.31399 2.672L0.961405 1.22624Z" fill="white"/>
<path d="M1.00303 4.31486C0.860173 4.16773 0.835583 3.9405 0.943766 3.76723C1.08608 3.53929 1.39586 3.4958 1.59659 3.67557L4.67488 6.43254L7.03822 8.09423L9.24126 9.25852L11.9457 10.4136C12.1902 10.5181 12.2847 10.8207 12.1435 11.047C12.0356 11.2197 11.8227 11.2908 11.6336 11.2173L9.72832 10.476C8.38618 9.95381 7.09085 9.31312 5.85725 8.56132L5.38293 8.27226L3.08641 6.46068L1.00303 4.31486Z" fill="white"/>
</svg>
