<svg width="25" height="24" viewBox="0 0 25 24" fill="none" xmlns="http://www.w3.org/2000/svg">
<path fill-rule="evenodd" clip-rule="evenodd" d="M11.5295 2.58982C12.0893 2.11484 12.9107 2.11484 13.4705 2.58982L20.9705 8.95345C21.3064 9.23846 21.5 9.6567 21.5 10.0972V19.5C21.5 20.3284 20.8284 21 20 21H14.25C13.8358 21 13.5 20.6642 13.5 20.25V14H11.5V20.25C11.5 20.6642 11.1642 21 10.75 21H5C4.17157 21 3.5 20.3284 3.5 19.5V10.0972C3.5 9.6567 3.69364 9.23846 4.02953 8.95345L11.5295 2.58982ZM12.5 3.73358L5 10.0972L5 19.5H10V13.25C10 12.8358 10.3358 12.5 10.75 12.5H14.25C14.6642 12.5 15 12.8358 15 13.25V19.5H20V10.0972L12.5 3.73358Z" fill="#949494"/>
</svg>
