<svg width="225" height="87" viewBox="0 0 225 87" fill="none" xmlns="http://www.w3.org/2000/svg">
<g clip-path="url(#clip0_934_182)">
<path d="M160.779 67.1397C161.327 68.3631 162.932 68.657 163.878 67.7068L175.118 56.4205V53.3019H170.472V47.6487H175.118V43.115L181.946 40.932V47.6487H183.853L188.7 42.7815C198.97 32.4686 198.062 15.5351 186.748 6.37897L185.619 5.46522C179.132 0.215959 170.423 -1.37832 162.497 1.23279L161.117 1.68756C147.293 6.24184 140.446 21.7555 146.396 35.0377L160.779 67.1397Z" fill="#242E42"/>
<path d="M0.0559722 46.3613H5.37334V66.9302H0V73.0601H17.8551V66.9302H12.5378V46.3613H17.8551V40.0925H0.0559722V46.3613Z" fill="white"/>
<path d="M20.2746 66.9498V73.0694H34.3236V66.9498H32.0847V54.7105C32.7186 54.2259 33.5489 53.787 34.5755 53.3952C35.6012 53.0034 36.6744 52.8075 37.7939 52.8075C39.5472 52.8075 40.7413 53.3112 41.3761 54.3187C42.01 55.3262 42.3276 56.6136 42.3276 58.1808V66.9498H40.0328V73.0694H54.0258V66.9498H49.3801V57.3412C49.3801 55.364 49.0723 53.5542 48.4566 51.9119C47.8409 50.2701 46.8241 48.9645 45.4061 47.9939C43.9877 47.0237 42.0478 46.5386 39.585 46.5386C37.271 46.5386 35.368 46.8376 33.8758 47.4341C32.3828 48.0316 30.8902 48.8335 29.398 49.841L21.506 47.1543L19.6589 52.8635L25.0322 54.7105V66.9498H20.2746Z" fill="white"/>
<path d="M69.1621 73.6758C70.2065 73.34 71.1771 72.9482 72.0727 72.5004L70.7293 67.239C69.3109 67.9858 68.0986 68.3584 67.0911 68.3584C65.8598 68.3584 64.9362 67.8267 64.3205 66.7632C63.7048 65.6998 63.397 64.1605 63.397 62.1455V53.3019H70.1136V47.6487H63.397V40.932L56.5684 43.115V47.6487H51.9227V53.3019H56.5684V63.7127C56.5684 66.0636 56.941 68.0137 57.6878 69.5618C58.4341 71.1109 59.5158 72.2676 60.9342 73.0321C62.3522 73.7966 64.0495 74.1796 66.0277 74.1796C67.072 74.1796 68.1168 74.0116 69.1621 73.6758Z" fill="white"/>
<path d="M79.4984 72.4164C81.6621 73.5919 84.2 74.1796 87.1106 74.1796C88.9017 74.1796 90.7208 73.8339 92.5679 73.1441C94.415 72.4542 96.1963 71.3809 97.9132 69.9257L95.6184 65.6718C94.4234 66.6046 93.0996 67.3328 91.6443 67.8547C90.189 68.378 88.6778 68.6383 87.1106 68.6383C85.8041 68.6383 84.6007 68.4335 83.5004 68.0226C82.3991 67.6126 81.4942 66.9783 80.7857 66.1196C80.0763 65.2618 79.6471 64.1978 79.4984 62.9291H98.9767C99.0886 62.3694 99.1726 61.7728 99.2286 61.138C99.2845 60.5041 99.3125 59.9444 99.3125 59.4589C99.3125 56.8473 98.7617 54.5809 97.6613 52.6582C96.5601 50.737 95.0115 49.2355 93.0156 48.1525C91.0188 47.0708 88.6587 46.5293 85.9352 46.5293C83.3227 46.5293 81.0278 47.1081 79.0506 48.2644C77.0724 49.4216 75.5243 51.0448 74.4049 53.134C73.2854 55.2241 72.7257 57.6677 72.7257 60.4664C72.7257 63.1162 73.3134 65.4759 74.4888 67.5468C75.6643 69.6178 77.3341 71.241 79.4984 72.4164ZM81.6813 53.9456C82.9495 52.8453 84.4421 52.2944 86.159 52.2944C88.0621 52.2944 89.5542 52.8453 90.6368 53.9456C91.7185 55.0468 92.26 56.4737 92.26 58.2275H79.6663C79.7404 56.4737 80.4126 55.0468 81.6813 53.9456Z" fill="white"/>
<path d="M124.856 47.6487C123.177 47.0148 121.628 46.6972 120.21 46.6972C118.829 46.6972 117.43 46.9589 116.012 47.4808C114.593 48.0037 113.064 48.8055 111.423 49.8876L102.859 47.089L101.012 52.7982L106.385 54.5893V66.9405H101.683V73.0601H118.923V66.9405H113.438L113.494 55.2609C114.127 54.739 114.949 54.3006 115.956 53.9456C116.964 53.5916 118.101 53.3397 119.371 53.19L119.93 56.2125L125.807 54.9811L124.856 47.6487Z" fill="white"/>
<path d="M141.179 51.9026C141.663 51.9026 142.186 51.9404 142.746 52.0145C143.306 52.0896 143.884 52.2202 144.481 52.4063L145.321 57.052L152.762 55.4522L149.743 48.096C148.362 47.5741 146.934 47.1725 145.461 46.8926C143.986 46.6128 142.522 46.4728 141.067 46.4728C138.044 46.4728 135.507 47.0046 133.455 48.068C131.402 49.1315 129.853 50.7179 128.809 52.8257C127.764 54.9344 127.242 57.5371 127.242 60.6338C127.242 63.5821 127.792 66.0631 128.893 68.0781C129.993 70.0931 131.56 71.6142 133.595 72.6398C135.628 73.6655 138.044 74.1791 140.843 74.1791C142.298 74.1791 143.614 74.0018 144.789 73.6473C145.964 73.2924 147.112 72.7896 148.231 72.1361C149.351 71.4836 150.488 70.7088 151.646 69.8132L148.791 65.6153C147.485 66.5482 146.16 67.2665 144.817 67.7703C143.474 68.274 142.167 68.5259 140.899 68.5259C139.071 68.5259 137.541 67.8174 136.309 66.3989C135.078 64.981 134.462 63.0597 134.462 60.6338C134.462 57.761 135.031 55.5874 136.169 54.113C137.307 52.6396 138.977 51.9026 141.179 51.9026Z" fill="white"/>
<path d="M181.946 40.932L175.118 43.115V47.6487H170.472V53.3019H175.118V63.7127C175.118 66.0636 175.49 68.0137 176.237 69.5618C176.983 71.1109 178.065 72.2676 179.483 73.0321C180.901 73.7966 182.599 74.1796 184.577 74.1796C185.621 74.1796 186.666 74.0116 187.711 73.6758C188.705 73.3563 189.63 72.9841 190.49 72.5634L188.181 67.7581C187.225 68.1574 186.377 68.3589 185.64 68.3589C184.409 68.3589 183.485 67.8272 182.87 66.7637C182.254 65.7002 181.946 64.161 181.946 62.146V53.3024H188.663V47.6492H181.946V40.932Z" fill="white"/>
<path d="M205.427 47.5732H191.042V53.2263H195.184L204.828 73.7943C204.107 75.5257 203.466 76.9194 202.908 77.9661C202.31 79.0855 201.713 79.878 201.117 80.3449C200.52 80.8113 199.792 81.0446 198.934 81.0446C198.224 81.0446 197.581 80.9695 197.003 80.8207C196.424 80.6714 195.762 80.4475 195.016 80.149L193.672 85.6903C194.643 86.1003 195.575 86.4081 196.471 86.6138C197.367 86.8181 198.224 86.9216 199.046 86.9216C201.247 86.9216 203.178 86.1562 204.839 84.6268C206.499 83.0964 208.132 80.5408 209.736 76.9586L220.427 53.2263H224.849V47.5732H210.968L210.632 53.2263H213.431L207.896 66.4587L202.404 53.2263H205.427V47.5732Z" fill="white"/>
<path d="M156.422 73.2971C154.973 74.7841 154.249 76.7142 154.249 79.0902C154.249 81.4662 154.973 83.3795 156.422 84.8278C157.87 86.2761 159.781 87 162.159 87C164.537 87 166.465 86.2761 167.952 84.8278C169.436 83.3795 170.18 81.4681 170.18 79.0902C170.18 76.7123 169.436 74.7836 167.952 73.2971C166.465 71.8124 164.535 71.0689 162.159 71.0689C159.783 71.0689 157.87 71.8124 156.422 73.2971Z" fill="#242E42"/>
</g>
<defs>
<clipPath id="clip0_934_182">
<rect width="224.849" height="87" fill="white"/>
</clipPath>
</defs>
</svg>
