<svg width="20" height="20" viewBox="0 0 20 20" fill="none" xmlns="http://www.w3.org/2000/svg">
<circle cx="10" cy="10" r="9.5" fill="#D9D9D9"/>
<circle cx="10" cy="10" r="9.5" fill="white"/>
<path d="M19.5 10C19.5 7.80212 18.7379 5.67224 17.3436 3.97326C15.9493 2.27428 14.009 1.11132 11.8534 0.68254C9.69771 0.253756 7.46008 0.585677 5.52173 1.62175C3.58338 2.65782 2.06424 4.33393 1.22314 6.36451C0.382054 8.39508 0.271057 10.6545 0.909067 12.7577C1.54708 14.8609 2.89462 16.6779 4.72208 17.899C6.54955 19.12 8.74387 19.6697 10.9312 19.4543C13.1185 19.2388 15.1634 18.2716 16.7175 16.7175L10 10H19.5Z" fill="#199675" fill-opacity="0.56"/>
<circle cx="10" cy="10" r="6.22414" fill="#199675"/>
</svg>
