<svg width="58" height="58" viewBox="0 0 58 58" fill="none" xmlns="http://www.w3.org/2000/svg">
<path d="M58 29C58 45.0162 45.0163 58 29 58C12.9837 58 7.38272e-06 45.0162 7.38272e-06 29C7.38272e-06 12.9837 12.9837 -1.51824e-05 29 -1.51824e-05C45.0163 -1.51824e-05 58 12.9837 58 29Z" fill="#D9D9D9"/>
<path d="M58 29C58 45.0162 45.0163 58 29 58C12.9837 58 7.38272e-06 45.0162 7.38272e-06 29C7.38272e-06 12.9837 12.9837 -1.51824e-05 29 -1.51824e-05C45.0163 -1.51824e-05 58 12.9837 58 29Z" fill="white"/>
<path d="M58 29C58 22.2907 55.6736 15.7889 51.4173 10.6026C47.161 5.41622 41.238 1.86613 34.6576 0.557212C28.0772 -0.751709 21.2466 0.261524 15.3295 3.42427C9.41243 6.58701 4.77504 11.7036 2.2075 17.9022C-0.360038 24.1007 -0.69887 30.9978 1.24874 37.4182C3.19634 43.8386 7.30989 49.3851 12.8885 53.1126C18.467 56.8401 25.1655 58.518 31.8425 57.8603C38.5195 57.2027 44.7619 54.2503 49.5061 49.5061L29 29H58Z" fill="#199675" fill-opacity="0.56"/>
<path d="M48 29C48 39.4934 39.4934 48 29 48C18.5066 48 10 39.4934 10 29C10 18.5066 18.5066 9.99998 29 9.99998C39.4934 9.99998 48 18.5066 48 29Z" fill="#199675"/>
</svg>
