<svg width="206" height="113" viewBox="0 0 206 113" fill="none" xmlns="http://www.w3.org/2000/svg">
<g clip-path="url(#clip0_528_42)">
<path d="M139.893 58.4179C140.37 59.4824 141.766 59.7381 142.589 58.9114L152.369 49.0912V46.3777H148.327V41.4589H152.369V37.5141L158.311 35.6148V41.4589H159.97L164.187 37.2239C173.123 28.2507 172.333 13.517 162.489 5.5503L161.506 4.75525C155.862 0.187889 148.284 -1.19928 141.388 1.07263L140.187 1.46833C128.159 5.43098 122.201 18.9293 127.379 30.4861L139.893 58.4179Z" fill="white"/>
<path d="M0.0487012 40.3388H4.67532V58.2357H0V63.5693H15.5357V58.2357H10.9091V40.3388H15.5357V34.8843H0.0487012V40.3388Z" fill="#30E3CA"/>
<path d="M17.6408 58.2527V63.5774H29.8648V58.2527H27.9167V47.6034C28.4683 47.1817 29.1907 46.7998 30.0839 46.4589C30.9764 46.118 31.9102 45.9476 32.8843 45.9476C34.4098 45.9476 35.4488 46.3859 36.0011 47.2625C36.5527 48.1391 36.8291 49.2593 36.8291 50.6229V58.2527H34.8323V63.5774H47.0076V58.2527H42.9654V49.8924C42.9654 48.172 42.6976 46.5973 42.1618 45.1684C41.6261 43.7398 40.7414 42.6038 39.5076 41.7593C38.2735 40.9151 36.5856 40.493 34.4427 40.493C32.4293 40.493 30.7735 40.7532 29.4752 41.2723C28.1761 41.7921 26.8774 42.4898 25.5791 43.3664L18.7122 41.0288L17.1051 45.9963L21.7804 47.6034V58.2527H17.6408Z" fill="#30E3CA"/>
<path d="M60.1776 64.105C61.0863 63.8128 61.9309 63.4719 62.7101 63.0823L61.5413 58.5044C60.3071 59.1541 59.2523 59.4784 58.3757 59.4784C57.3043 59.4784 56.5007 59.0157 55.965 58.0904C55.4293 57.1651 55.1614 55.8258 55.1614 54.0726V46.3778H61.0056V41.459H55.1614V35.6148L49.2199 37.5142V41.459H45.1777V46.3778H49.2199V55.4362C49.2199 57.4816 49.5441 59.1785 50.1939 60.5255C50.8432 61.8733 51.7844 62.8798 53.0186 63.5449C54.2523 64.2101 55.7292 64.5433 57.4504 64.5433C58.3591 64.5433 59.2681 64.3972 60.1776 64.105Z" fill="#30E3CA"/>
<path d="M69.1711 63.0092C71.0538 64.032 73.262 64.5433 75.7945 64.5433C77.3529 64.5433 78.9357 64.2426 80.5428 63.6423C82.15 63.0421 83.6999 62.1083 85.1938 60.842L83.1971 57.1407C82.1573 57.9524 81.0055 58.5859 79.7393 59.0401C78.473 59.4954 77.1581 59.7219 75.7945 59.7219C74.6577 59.7219 73.6106 59.5437 72.6533 59.1862C71.6951 58.8295 70.9077 58.2775 70.2912 57.5303C69.674 56.784 69.3006 55.8583 69.1711 54.7544H86.1191C86.2165 54.2674 86.2896 53.7483 86.3383 53.1959C86.387 52.6444 86.4113 52.1574 86.4113 51.7349C86.4113 49.4626 85.932 47.4906 84.9747 45.8177C84.0165 44.146 82.6691 42.8396 80.9325 41.8973C79.195 40.9561 77.1415 40.4849 74.7718 40.4849C72.4986 40.4849 70.5019 40.9886 68.7815 41.9947C67.0603 43.0016 65.7133 44.4139 64.7393 46.2317C63.7653 48.0503 63.2783 50.1765 63.2783 52.6115C63.2783 54.9171 63.7896 56.9703 64.8124 58.7722C65.8351 60.5742 67.288 61.9865 69.1711 63.0092ZM71.0705 46.9378C72.174 45.9804 73.4727 45.5011 74.9666 45.5011C76.6224 45.5011 77.9207 45.9804 78.8627 46.9378C79.8038 47.896 80.275 49.1375 80.275 50.6635H69.3172C69.3818 49.1375 69.9666 47.896 71.0705 46.9378Z" fill="#30E3CA"/>
<path d="M108.637 41.4589C107.176 40.9074 105.828 40.631 104.594 40.631C103.393 40.631 102.175 40.8587 100.942 41.3128C99.7072 41.7677 98.3764 42.4654 96.9483 43.407L89.497 40.9719L87.8898 45.9394L92.5652 47.4979V58.2446H88.4743V63.5692H103.474V58.2446H98.7015L98.7502 48.0823C99.3018 47.6281 100.016 47.2466 100.893 46.9378C101.77 46.6298 102.76 46.4106 103.864 46.2803L104.351 48.9102L109.464 47.8388L108.637 41.4589Z" fill="#30E3CA"/>
<path d="M122.839 45.1602C123.261 45.1602 123.716 45.1931 124.203 45.2576C124.69 45.323 125.193 45.4366 125.712 45.5985L126.443 49.6407L132.918 48.2487L130.29 41.8481C129.089 41.394 127.847 41.0446 126.565 40.801C125.281 40.5575 124.008 40.4358 122.742 40.4358C120.112 40.4358 117.904 40.8985 116.118 41.8238C114.333 42.7491 112.985 44.1294 112.076 45.9634C111.167 47.7982 110.712 50.0628 110.712 52.7572C110.712 55.3225 111.191 57.4812 112.149 59.2345C113.106 60.9877 114.47 62.3112 116.24 63.2036C118.009 64.0961 120.112 64.5429 122.547 64.5429C123.813 64.5429 124.958 64.3887 125.98 64.0802C127.003 63.7714 128.001 63.3339 128.975 62.7653C129.949 62.1975 130.939 61.5234 131.946 60.7442L129.462 57.0916C128.326 57.9033 127.173 58.5283 126.005 58.9666C124.836 59.4049 123.699 59.6241 122.596 59.6241C121.005 59.6241 119.673 59.0076 118.602 57.7734C117.531 56.5397 116.995 54.868 116.995 52.7572C116.995 50.2576 117.49 48.3664 118.48 47.0835C119.47 45.8014 120.923 45.1602 122.839 45.1602Z" fill="#30E3CA"/>
<path d="M144.235 77.9077C142.328 78.5335 140.276 78.5648 138.35 77.9966L138.049 77.9077V94.6934H134.007V100.018H148.276V94.6934H144.234L144.235 77.9077Z" fill="white"/>
<path d="M48.2073 85.432C49.4411 84.8156 50.3903 83.9706 51.0563 82.8996C51.7215 81.8281 52.0547 80.5619 52.0547 79.1009C52.0547 76.6013 51.032 74.678 48.9865 73.3298C46.9411 71.9832 43.9865 71.3091 40.1229 71.3091H27.2171V76.7632H31.1619V94.5392H27.2171V99.9937H43.1424C46.3238 99.9937 48.7507 99.3119 50.4232 97.9482C52.0953 96.5846 52.9313 94.6366 52.9313 92.1041C52.9313 90.3513 52.5251 88.9069 51.7138 87.7697C50.9021 86.6337 49.7329 85.8541 48.2073 85.432ZM37.4443 76.7632H40.6586C43.9049 76.7632 45.5287 77.8517 45.5287 80.0262C45.5287 81.0327 45.2609 81.8119 44.7252 82.3639C44.1894 82.9162 43.4021 83.1918 42.3631 83.1918H37.4443V76.7632ZM45.3096 93.7112C44.5462 94.2636 43.4504 94.5392 42.0222 94.5392H37.4443V88.1106H42.3144C43.6452 88.1106 44.6679 88.3785 45.3826 88.9142C46.0965 89.4495 46.454 90.2376 46.454 91.2758C46.454 92.3476 46.0721 93.1597 45.3096 93.7112Z" fill="#30E3CA"/>
<path d="M72.9309 78.346C71.1776 77.3887 69.0348 76.9094 66.5023 76.9094C64.0344 76.9094 61.9321 77.3887 60.1955 78.346C58.4585 79.3038 57.1432 80.6837 56.2507 82.4856C55.3574 84.2872 54.9114 86.4544 54.9114 88.9873C54.9114 91.4877 55.3574 93.6382 56.2507 95.4402C57.1432 97.2417 58.4581 98.6139 60.1955 99.5554C61.9321 100.497 64.0344 100.968 66.5023 100.968C70.2681 100.968 73.1744 99.9126 75.2198 97.8018C77.2653 95.6918 78.288 92.7539 78.288 88.9869C78.288 86.4544 77.8331 84.2872 76.9244 82.4852C76.0149 80.6833 74.6841 79.3038 72.9309 78.346ZM70.8124 94.247C69.8546 95.4487 68.4337 96.0489 66.551 96.0489C64.7004 96.0489 63.3043 95.4487 62.3627 94.247C61.4207 93.0461 60.9504 91.2933 60.9504 88.9873C60.9504 86.6813 61.4207 84.9292 62.3627 83.7275C63.3039 82.5266 64.7004 81.926 66.551 81.926C68.4337 81.926 69.8546 82.5266 70.8124 83.7275C71.7697 84.9292 72.2491 86.6821 72.2491 88.9873C72.2491 91.2924 71.7697 93.0461 70.8124 94.247Z" fill="#30E3CA"/>
<path d="M98.2709 78.346C96.5177 77.3887 94.3748 76.9094 91.8424 76.9094C89.3744 76.9094 87.2722 77.3887 85.5356 78.346C83.7985 79.3038 82.4832 80.6837 81.5908 82.4856C80.6975 84.2872 80.2515 86.4544 80.2515 88.9873C80.2515 91.4877 80.6975 93.6382 81.5908 95.4402C82.4832 97.2417 83.7981 98.6139 85.5356 99.5554C87.2722 100.497 89.3744 100.968 91.8424 100.968C95.6082 100.968 98.5144 99.9126 100.56 97.8018C102.605 95.6918 103.628 92.7539 103.628 88.9869C103.628 86.4544 103.173 84.2872 102.264 82.4852C101.355 80.6833 100.024 79.3038 98.2709 78.346ZM96.1524 94.247C95.1946 95.4487 93.7738 96.0489 91.8911 96.0489C90.0404 96.0489 88.6443 95.4487 87.7028 94.247C86.7608 93.0461 86.2904 91.2933 86.2904 88.9873C86.2904 86.6813 86.7608 84.9292 87.7028 83.7275C88.6439 82.5266 90.0404 81.926 91.8911 81.926C93.7738 81.926 95.1946 82.5266 96.1524 83.7275C97.1098 84.9292 97.5891 86.6821 97.5891 88.9873C97.5891 91.2924 97.1098 93.0461 96.1524 94.247Z" fill="#30E3CA"/>
<path d="M124.066 89.0359L127.946 82.8022H131.501V77.8829H119.228V82.8022H121.663L119.374 86.6983H116.16V70.0425L106.956 66.9252L105.348 71.8931L109.975 73.4511V94.669H105.884V99.9937H117.572V94.669H116.16V91.5684H119.617L124.975 99.9937H131.939V94.669H127.946L124.066 89.0359Z" fill="#30E3CA"/>
<path d="M167.594 94.6447V99.9694H179.77V94.6447H175.727V86.2843C175.727 84.564 175.459 82.9893 174.924 81.5599C174.388 80.1318 173.503 78.9958 172.27 78.1512C171.035 77.3071 169.348 76.885 167.205 76.885C165.192 76.885 163.536 77.1456 162.237 77.6642C160.939 78.1837 159.64 78.8818 158.341 79.7584L151.475 77.4207L149.867 82.3878L154.543 83.995V94.6443H150.403V99.969H162.627V94.6443H160.679V83.995C161.231 83.5737 161.953 83.1918 162.846 82.8509C163.739 82.51 164.673 82.3391 165.647 82.3391C167.173 82.3391 168.211 82.7774 168.763 83.6541C169.315 84.5307 169.591 85.6508 169.591 87.0145V94.6443H167.595L167.594 94.6447Z" fill="#30E3CA"/>
<path d="M200.205 99.124C198.711 97.8419 196.47 97.2003 193.483 97.2003H189.685V94.5485C189.958 94.5586 190.229 94.5708 190.513 94.5708C192.428 94.5708 194.214 94.303 195.87 93.7672C197.526 93.2315 198.865 92.3387 199.888 91.0887C200.911 89.8391 201.422 88.1589 201.422 86.0481C201.422 85.4637 201.324 84.7819 201.13 84.0027C200.935 83.2234 200.561 82.5412 200.009 81.9572L206 81.178L204.1 75.7234L196.6 78.3046C195.691 77.8176 194.765 77.4848 193.824 77.3062C192.882 77.1281 191.795 77.0384 190.561 77.0384C187.314 77.0384 184.701 77.8663 182.72 79.5221C180.74 81.178 179.75 83.4511 179.75 86.3403C179.75 89.0031 180.699 91.04 182.599 92.4523C183.301 92.9746 184.106 93.3987 185.009 93.7279V102.363H192.948C194.507 102.363 195.488 102.566 195.895 102.972C196.3 103.378 196.503 103.857 196.503 104.408C196.503 104.766 196.349 105.139 196.041 105.529C195.731 105.919 195.171 106.243 194.36 106.503C193.548 106.762 192.395 106.892 190.902 106.892C189.214 106.892 187.664 106.705 186.251 106.332C184.839 105.958 183.305 105.431 181.649 104.75L179.457 109.62C180.042 109.912 180.837 110.26 181.844 110.667C182.85 111.072 184.1 111.429 185.594 111.738C187.087 112.046 188.857 112.201 190.902 112.201C192.915 112.201 194.798 111.949 196.552 111.447C198.305 110.943 199.724 110.123 200.813 108.987C201.901 107.85 202.444 106.34 202.444 104.458C202.444 102.184 201.698 100.406 200.205 99.124ZM186.86 82.7117C187.769 81.9812 189.019 81.6163 190.61 81.6163C192.233 81.6163 193.492 81.9812 194.385 82.7117C195.277 83.4426 195.724 84.5221 195.724 85.9503C195.724 87.1845 195.277 88.1828 194.385 88.9454C193.492 89.7088 192.233 90.0899 190.61 90.0899C189.019 90.0899 187.769 89.7088 186.86 88.9454C185.951 88.1828 185.497 87.1845 185.497 85.9503C185.497 84.5217 185.951 83.4422 186.86 82.7117Z" fill="#30E3CA"/>
<path d="M158.311 35.6148L152.369 37.5142V41.459H148.327V46.3778H152.369V55.4362C152.369 57.4816 152.693 59.1785 153.343 60.5255C153.992 61.8733 154.934 62.8798 156.168 63.5449C157.401 64.2101 158.878 64.5433 160.6 64.5433C161.508 64.5433 162.417 64.3972 163.327 64.105C164.192 63.827 164.996 63.5031 165.744 63.1371L163.735 58.9561C162.903 59.3035 162.166 59.4788 161.525 59.4788C160.453 59.4788 159.65 59.0161 159.114 58.0908C158.578 57.1655 158.311 55.8262 158.311 54.073V46.3782H164.155V41.4594H158.311V35.6148Z" fill="#30E3CA"/>
<path d="M178.741 41.3932H166.225V46.312H169.828L178.22 64.2081C177.593 65.7146 177.035 66.9272 176.549 67.8379C176.029 68.812 175.509 69.5015 174.991 69.9077C174.471 70.3136 173.838 70.5165 173.091 70.5165C172.474 70.5165 171.914 70.4512 171.411 70.3217C170.908 70.1918 170.331 69.997 169.682 69.7373L168.513 74.5587C169.358 74.9154 170.169 75.1833 170.949 75.3623C171.728 75.54 172.474 75.6301 173.189 75.6301C175.104 75.6301 176.784 74.9641 178.229 73.6334C179.674 72.3018 181.095 70.0782 182.491 66.9613L191.793 46.312H195.64V41.3932H183.562L183.27 46.312H185.705L180.889 57.8254L176.111 46.312H178.741V41.3932Z" fill="#30E3CA"/>
<path d="M136.102 63.7754C134.841 65.0693 134.211 66.7487 134.211 68.816C134.211 70.8834 134.841 72.5482 136.102 73.8083C137.362 75.0684 139.024 75.6983 141.093 75.6983C143.162 75.6983 144.841 75.0684 146.134 73.8083C147.426 72.5482 148.073 70.885 148.073 68.816C148.073 66.747 147.426 65.0689 146.134 63.7754C144.84 62.4836 143.161 61.8367 141.093 61.8367C139.026 61.8367 137.362 62.4836 136.102 63.7754Z" fill="#FFDE7D"/>
</g>
<defs>
<clipPath id="clip0_528_42">
<rect width="206" height="112.2" fill="white"/>
</clipPath>
</defs>
</svg>
