<svg width="25" height="24" viewBox="0 0 25 24" fill="none" xmlns="http://www.w3.org/2000/svg">
<mask id="path-1-outside-1_120_638" maskUnits="userSpaceOnUse" x="1.5" y="1" width="22" height="22" fill="black">
<rect fill="white" x="1.5" y="1" width="22" height="22"/>
<path d="M10.902 2C10.4123 2 9.9999 2.41218 9.9999 2.90191V4.48582C9.63781 4.60646 9.28602 4.74962 8.94884 4.91894L7.83369 3.80395C7.65978 3.63004 7.4326 3.53397 7.19448 3.53397C6.95636 3.53397 6.72775 3.6386 6.56241 3.80395L4.30395 6.06241C3.95803 6.40833 3.95803 6.98778 4.30395 7.33369L5.41894 8.44883C5.24962 8.78604 5.10647 9.13784 4.98582 9.4999H3.40192C2.91222 9.4999 2.5 9.91224 2.5 10.402V13.598C2.5 14.0877 2.91218 14.5001 3.40192 14.5001H4.98582C5.10646 14.8622 5.24962 15.214 5.41894 15.5512L4.30395 16.6663C3.95803 17.0122 3.95803 17.5917 4.30395 17.9376L6.56241 20.196C6.90833 20.542 7.48779 20.542 7.83369 20.196L8.94884 19.0811C9.28604 19.2504 9.63784 19.3935 9.9999 19.5142V21.0981C9.9999 21.5878 10.4122 22 10.902 22H14.098C14.5877 22 15.0001 21.5878 15.0001 21.0981V19.5142C15.3622 19.3935 15.714 19.2504 16.0512 19.0811L17.1663 20.196C17.5122 20.542 18.0917 20.542 18.4376 20.196L20.6961 17.9376C21.042 17.5917 21.042 17.0122 20.6961 16.6663L19.5811 15.5512C19.7504 15.214 19.8935 14.8622 20.0142 14.5001H21.5981C22.0878 14.5001 22.5 14.0878 22.5 13.598V10.402C22.5 9.91228 22.0878 9.4999 21.5981 9.4999H20.0142C19.8935 9.1378 19.7504 8.78601 19.5811 8.44883L20.6961 7.33369C21.042 6.98777 21.042 6.40831 20.6961 6.06241L18.4376 3.80395C18.2722 3.6386 18.0436 3.53397 17.8055 3.53397C17.5674 3.53397 17.3402 3.63004 17.1663 3.80395L16.0512 4.91894C15.714 4.74962 15.3622 4.60647 15.0001 4.48582V2.90191C15.0001 2.41222 14.5878 2 14.098 2H10.902ZM10.9091 2.90902H14.0909V4.78399C14.0899 4.98929 14.2267 5.16986 14.4248 5.22442C14.9587 5.3755 15.4641 5.58413 15.9375 5.84934C16.1149 5.9462 16.3348 5.91434 16.4773 5.77118L17.7984 4.44313L20.0568 6.69449V6.70162L18.7288 8.02269C18.5856 8.16522 18.5537 8.3851 18.6506 8.56251C18.9158 9.03589 19.1245 9.54129 19.2755 10.0752C19.3301 10.2732 19.5106 10.4101 19.716 10.4091H21.5909V13.5909H19.716C19.5107 13.5899 19.3301 13.7267 19.2755 13.9247C19.1244 14.4587 18.9158 14.9641 18.6506 15.4375C18.5537 15.6149 18.5856 15.8347 18.7288 15.9773L20.0568 17.2983L17.8055 19.5568L16.4772 18.2288C16.3347 18.0856 16.1148 18.0537 15.9374 18.1506C15.464 18.4158 14.9586 18.6245 14.4247 18.7755C14.2267 18.8301 14.0899 19.0106 14.0908 19.2159V21.0909H10.9091V19.2159C10.91 19.0106 10.7732 18.8301 10.5752 18.7755C10.0413 18.6244 9.53586 18.4158 9.06248 18.1506C8.88508 18.0537 8.66519 18.0856 8.52266 18.2288L7.20159 19.5568L4.94313 17.3054V17.2983L6.27118 15.9772C6.41434 15.8347 6.44621 15.6148 6.34934 15.4374C6.08411 14.964 5.87547 14.4586 5.72442 13.9247C5.66988 13.7267 5.48931 13.5899 5.28399 13.5908H3.40902V10.4091H5.28399C5.48929 10.41 5.66986 10.2732 5.72442 10.0752C5.8755 9.54126 6.08413 9.03586 6.34934 8.56248C6.44621 8.38508 6.41434 8.16519 6.27118 8.02266L4.94313 6.70159V6.69445L7.19449 4.4431C7.19655 4.4431 7.19988 4.44373 7.20162 4.4431L8.5227 5.77115C8.66522 5.91431 8.88511 5.94617 9.06251 5.84931C9.53589 5.58408 10.0413 5.37544 10.5752 5.22439C10.7732 5.16985 10.9101 4.98928 10.9091 4.78396L10.9091 2.90902ZM12.5 7.22723C9.86945 7.22723 7.72723 9.3695 7.72723 12C7.72723 14.6305 9.86949 16.7728 12.5 16.7728C15.1305 16.7728 17.2728 14.6305 17.2728 12C17.2728 9.3695 15.1305 7.22723 12.5 7.22723ZM12.5 8.13641C14.6393 8.13641 16.3636 9.86078 16.3636 12C16.3636 14.1393 14.6393 15.8637 12.5 15.8637C10.3607 15.8637 8.63637 14.1393 8.63637 12C8.63637 9.86078 10.3607 8.13641 12.5 8.13641Z"/>
</mask>
<path d="M10.902 2C10.4123 2 9.9999 2.41218 9.9999 2.90191V4.48582C9.63781 4.60646 9.28602 4.74962 8.94884 4.91894L7.83369 3.80395C7.65978 3.63004 7.4326 3.53397 7.19448 3.53397C6.95636 3.53397 6.72775 3.6386 6.56241 3.80395L4.30395 6.06241C3.95803 6.40833 3.95803 6.98778 4.30395 7.33369L5.41894 8.44883C5.24962 8.78604 5.10647 9.13784 4.98582 9.4999H3.40192C2.91222 9.4999 2.5 9.91224 2.5 10.402V13.598C2.5 14.0877 2.91218 14.5001 3.40192 14.5001H4.98582C5.10646 14.8622 5.24962 15.214 5.41894 15.5512L4.30395 16.6663C3.95803 17.0122 3.95803 17.5917 4.30395 17.9376L6.56241 20.196C6.90833 20.542 7.48779 20.542 7.83369 20.196L8.94884 19.0811C9.28604 19.2504 9.63784 19.3935 9.9999 19.5142V21.0981C9.9999 21.5878 10.4122 22 10.902 22H14.098C14.5877 22 15.0001 21.5878 15.0001 21.0981V19.5142C15.3622 19.3935 15.714 19.2504 16.0512 19.0811L17.1663 20.196C17.5122 20.542 18.0917 20.542 18.4376 20.196L20.6961 17.9376C21.042 17.5917 21.042 17.0122 20.6961 16.6663L19.5811 15.5512C19.7504 15.214 19.8935 14.8622 20.0142 14.5001H21.5981C22.0878 14.5001 22.5 14.0878 22.5 13.598V10.402C22.5 9.91228 22.0878 9.4999 21.5981 9.4999H20.0142C19.8935 9.1378 19.7504 8.78601 19.5811 8.44883L20.6961 7.33369C21.042 6.98777 21.042 6.40831 20.6961 6.06241L18.4376 3.80395C18.2722 3.6386 18.0436 3.53397 17.8055 3.53397C17.5674 3.53397 17.3402 3.63004 17.1663 3.80395L16.0512 4.91894C15.714 4.74962 15.3622 4.60647 15.0001 4.48582V2.90191C15.0001 2.41222 14.5878 2 14.098 2H10.902ZM10.9091 2.90902H14.0909V4.78399C14.0899 4.98929 14.2267 5.16986 14.4248 5.22442C14.9587 5.3755 15.4641 5.58413 15.9375 5.84934C16.1149 5.9462 16.3348 5.91434 16.4773 5.77118L17.7984 4.44313L20.0568 6.69449V6.70162L18.7288 8.02269C18.5856 8.16522 18.5537 8.3851 18.6506 8.56251C18.9158 9.03589 19.1245 9.54129 19.2755 10.0752C19.3301 10.2732 19.5106 10.4101 19.716 10.4091H21.5909V13.5909H19.716C19.5107 13.5899 19.3301 13.7267 19.2755 13.9247C19.1244 14.4587 18.9158 14.9641 18.6506 15.4375C18.5537 15.6149 18.5856 15.8347 18.7288 15.9773L20.0568 17.2983L17.8055 19.5568L16.4772 18.2288C16.3347 18.0856 16.1148 18.0537 15.9374 18.1506C15.464 18.4158 14.9586 18.6245 14.4247 18.7755C14.2267 18.8301 14.0899 19.0106 14.0908 19.2159V21.0909H10.9091V19.2159C10.91 19.0106 10.7732 18.8301 10.5752 18.7755C10.0413 18.6244 9.53586 18.4158 9.06248 18.1506C8.88508 18.0537 8.66519 18.0856 8.52266 18.2288L7.20159 19.5568L4.94313 17.3054V17.2983L6.27118 15.9772C6.41434 15.8347 6.44621 15.6148 6.34934 15.4374C6.08411 14.964 5.87547 14.4586 5.72442 13.9247C5.66988 13.7267 5.48931 13.5899 5.28399 13.5908H3.40902V10.4091H5.28399C5.48929 10.41 5.66986 10.2732 5.72442 10.0752C5.8755 9.54126 6.08413 9.03586 6.34934 8.56248C6.44621 8.38508 6.41434 8.16519 6.27118 8.02266L4.94313 6.70159V6.69445L7.19449 4.4431C7.19655 4.4431 7.19988 4.44373 7.20162 4.4431L8.5227 5.77115C8.66522 5.91431 8.88511 5.94617 9.06251 5.84931C9.53589 5.58408 10.0413 5.37544 10.5752 5.22439C10.7732 5.16985 10.9101 4.98928 10.9091 4.78396L10.9091 2.90902ZM12.5 7.22723C9.86945 7.22723 7.72723 9.3695 7.72723 12C7.72723 14.6305 9.86949 16.7728 12.5 16.7728C15.1305 16.7728 17.2728 14.6305 17.2728 12C17.2728 9.3695 15.1305 7.22723 12.5 7.22723ZM12.5 8.13641C14.6393 8.13641 16.3636 9.86078 16.3636 12C16.3636 14.1393 14.6393 15.8637 12.5 15.8637C10.3607 15.8637 8.63637 14.1393 8.63637 12C8.63637 9.86078 10.3607 8.13641 12.5 8.13641Z" fill="black"/>
<path d="M10.902 2C10.4123 2 9.9999 2.41218 9.9999 2.90191V4.48582C9.63781 4.60646 9.28602 4.74962 8.94884 4.91894L7.83369 3.80395C7.65978 3.63004 7.4326 3.53397 7.19448 3.53397C6.95636 3.53397 6.72775 3.6386 6.56241 3.80395L4.30395 6.06241C3.95803 6.40833 3.95803 6.98778 4.30395 7.33369L5.41894 8.44883C5.24962 8.78604 5.10647 9.13784 4.98582 9.4999H3.40192C2.91222 9.4999 2.5 9.91224 2.5 10.402V13.598C2.5 14.0877 2.91218 14.5001 3.40192 14.5001H4.98582C5.10646 14.8622 5.24962 15.214 5.41894 15.5512L4.30395 16.6663C3.95803 17.0122 3.95803 17.5917 4.30395 17.9376L6.56241 20.196C6.90833 20.542 7.48779 20.542 7.83369 20.196L8.94884 19.0811C9.28604 19.2504 9.63784 19.3935 9.9999 19.5142V21.0981C9.9999 21.5878 10.4122 22 10.902 22H14.098C14.5877 22 15.0001 21.5878 15.0001 21.0981V19.5142C15.3622 19.3935 15.714 19.2504 16.0512 19.0811L17.1663 20.196C17.5122 20.542 18.0917 20.542 18.4376 20.196L20.6961 17.9376C21.042 17.5917 21.042 17.0122 20.6961 16.6663L19.5811 15.5512C19.7504 15.214 19.8935 14.8622 20.0142 14.5001H21.5981C22.0878 14.5001 22.5 14.0878 22.5 13.598V10.402C22.5 9.91228 22.0878 9.4999 21.5981 9.4999H20.0142C19.8935 9.1378 19.7504 8.78601 19.5811 8.44883L20.6961 7.33369C21.042 6.98777 21.042 6.40831 20.6961 6.06241L18.4376 3.80395C18.2722 3.6386 18.0436 3.53397 17.8055 3.53397C17.5674 3.53397 17.3402 3.63004 17.1663 3.80395L16.0512 4.91894C15.714 4.74962 15.3622 4.60647 15.0001 4.48582V2.90191C15.0001 2.41222 14.5878 2 14.098 2H10.902ZM10.9091 2.90902H14.0909V4.78399C14.0899 4.98929 14.2267 5.16986 14.4248 5.22442C14.9587 5.3755 15.4641 5.58413 15.9375 5.84934C16.1149 5.9462 16.3348 5.91434 16.4773 5.77118L17.7984 4.44313L20.0568 6.69449V6.70162L18.7288 8.02269C18.5856 8.16522 18.5537 8.3851 18.6506 8.56251C18.9158 9.03589 19.1245 9.54129 19.2755 10.0752C19.3301 10.2732 19.5106 10.4101 19.716 10.4091H21.5909V13.5909H19.716C19.5107 13.5899 19.3301 13.7267 19.2755 13.9247C19.1244 14.4587 18.9158 14.9641 18.6506 15.4375C18.5537 15.6149 18.5856 15.8347 18.7288 15.9773L20.0568 17.2983L17.8055 19.5568L16.4772 18.2288C16.3347 18.0856 16.1148 18.0537 15.9374 18.1506C15.464 18.4158 14.9586 18.6245 14.4247 18.7755C14.2267 18.8301 14.0899 19.0106 14.0908 19.2159V21.0909H10.9091V19.2159C10.91 19.0106 10.7732 18.8301 10.5752 18.7755C10.0413 18.6244 9.53586 18.4158 9.06248 18.1506C8.88508 18.0537 8.66519 18.0856 8.52266 18.2288L7.20159 19.5568L4.94313 17.3054V17.2983L6.27118 15.9772C6.41434 15.8347 6.44621 15.6148 6.34934 15.4374C6.08411 14.964 5.87547 14.4586 5.72442 13.9247C5.66988 13.7267 5.48931 13.5899 5.28399 13.5908H3.40902V10.4091H5.28399C5.48929 10.41 5.66986 10.2732 5.72442 10.0752C5.8755 9.54126 6.08413 9.03586 6.34934 8.56248C6.44621 8.38508 6.41434 8.16519 6.27118 8.02266L4.94313 6.70159V6.69445L7.19449 4.4431C7.19655 4.4431 7.19988 4.44373 7.20162 4.4431L8.5227 5.77115C8.66522 5.91431 8.88511 5.94617 9.06251 5.84931C9.53589 5.58408 10.0413 5.37544 10.5752 5.22439C10.7732 5.16985 10.9101 4.98928 10.9091 4.78396L10.9091 2.90902ZM12.5 7.22723C9.86945 7.22723 7.72723 9.3695 7.72723 12C7.72723 14.6305 9.86949 16.7728 12.5 16.7728C15.1305 16.7728 17.2728 14.6305 17.2728 12C17.2728 9.3695 15.1305 7.22723 12.5 7.22723ZM12.5 8.13641C14.6393 8.13641 16.3636 9.86078 16.3636 12C16.3636 14.1393 14.6393 15.8637 12.5 15.8637C10.3607 15.8637 8.63637 14.1393 8.63637 12C8.63637 9.86078 10.3607 8.13641 12.5 8.13641Z" stroke="black" stroke-width="0.2" mask="url(#path-1-outside-1_120_638)"/>
</svg>
