<svg width="25" height="24" viewBox="0 0 25 24" fill="none" xmlns="http://www.w3.org/2000/svg">
<path d="M2.26301 14.6564C2.30193 14.6177 2.36486 14.6176 2.40382 14.6564L2.33333 14.7271L2.26301 14.6564ZM2.26301 14.6564L2.56565 14.3536L2.56566 14.3536L14.6364 2.28284C14.8707 2.04853 15.2506 2.04853 15.485 2.28284L17.1011 3.899C17.3075 4.10538 17.3075 4.43999 17.1011 4.64637C16.3834 5.36407 16.3834 6.5146 17.1011 7.23229C17.8188 7.94999 18.9693 7.94999 19.687 7.23229C19.8934 7.02591 20.228 7.02591 20.4344 7.23229L22.0506 8.84845C22.2849 9.08277 22.2849 9.46267 22.0506 9.69698L9.97981 21.7677L9.97979 21.7678C9.77331 21.9741 9.43864 21.9741 9.23221 21.7677L7.56557 20.101C7.56556 20.101 7.56555 20.101 7.56555 20.101C7.35911 19.8946 7.35911 19.56 7.56555 19.3536C8.28324 18.6359 8.28324 17.4854 7.56555 16.7677C6.84784 16.0502 5.69731 16.05 4.97963 16.7677C4.77327 16.9741 4.43861 16.9741 4.23226 16.7677C4.23225 16.7677 4.23225 16.7677 4.23224 16.7677L2.26269 14.7981L2.26254 14.798L2.33333 14.7271L2.26282 14.6566L2.26301 14.6564ZM4.47125 15.5118L3.6868 14.7274L10.99 7.42414C11.1462 7.26793 11.3995 7.26793 11.5557 7.42414L16.9092 12.7777C17.0654 12.9339 17.0654 13.1871 16.9092 13.3433L9.88893 20.3636C9.73272 20.5199 9.47945 20.5199 9.32325 20.3636L8.88562 19.926C8.74829 19.7887 8.72866 19.5647 8.82607 19.3763C9.38629 18.2927 9.22118 16.9282 8.31304 16.0201C7.38021 15.0873 5.96139 14.9342 4.86344 15.5504C4.73025 15.6252 4.56929 15.6098 4.47125 15.5118ZM12.3032 6.67662C12.147 6.52041 12.147 6.26714 12.3032 6.11094L14.778 3.63616C14.9342 3.47995 15.1875 3.47995 15.3437 3.63616L15.7766 4.06902C15.9139 4.20634 15.9335 4.43036 15.8363 4.6189C15.2768 5.70354 15.4459 7.07177 16.3537 7.97966C17.2618 8.88768 18.6263 9.05276 19.7099 8.49264C19.8983 8.39526 20.1223 8.41489 20.2596 8.55221L20.6973 8.98986C20.8535 9.14607 20.8535 9.39934 20.6973 9.55555L18.2225 12.0303C18.0663 12.1865 17.813 12.1865 17.6568 12.0303L12.3032 6.67662Z" fill="black" stroke="black" stroke-width="0.2"/>
</svg>
