<svg width="21" height="21" viewBox="0 0 21 21" fill="none" xmlns="http://www.w3.org/2000/svg">
<g clip-path="url(#clip0_686_42)">
<path d="M2.52009 19.95C2.52009 20.4679 2.84265 20.79 3.36009 20.79C3.87879 20.79 4.20009 20.4679 4.20009 19.95V12.18H5.04009V19.95C5.04009 20.467 5.36223 20.79 5.88009 20.79C6.39795 20.79 6.72009 20.4679 6.72009 19.95V6.72H7.14009V11.4719C7.14009 12.4778 8.40261 12.4778 8.40009 11.4719V6.36762C8.40009 5.2563 7.59957 4.62 6.30009 4.62H2.94009C1.75569 4.62 0.840088 5.13198 0.840088 6.33654V11.76C0.840088 12.6 2.10009 12.6 2.10009 11.76V6.72H2.52009V19.95Z" fill="#20463C"/>
<path d="M4.56746 3.88498C5.52429 3.88498 6.29996 3.10932 6.29996 2.15248C6.29996 1.19565 5.52429 0.419983 4.56746 0.419983C3.61063 0.419983 2.83496 1.19565 2.83496 2.15248C2.83496 3.10932 3.61063 3.88498 4.56746 3.88498Z" fill="#20463C"/>
<path d="M15.0675 3.88498C16.0243 3.88498 16.8 3.10932 16.8 2.15248C16.8 1.19565 16.0243 0.419983 15.0675 0.419983C14.1106 0.419983 13.335 1.19565 13.335 2.15248C13.335 3.10932 14.1106 3.88498 15.0675 3.88498Z" fill="#20463C"/>
<path d="M19.2836 13.65L16.8018 6.83046L16.7875 6.76032C16.7875 6.66078 16.8711 6.58013 16.9753 6.58013C17.0639 6.58013 17.1382 6.63936 17.158 6.71832L18.8451 11.13C18.9572 11.3824 19.4184 11.55 19.7216 11.55C20.1269 11.55 20.1689 10.7541 20.1601 10.71L18.473 6.46505C18.3264 5.49023 17.3419 4.62 16.2184 4.62H14.0197C12.8962 4.62 11.8391 5.49023 11.6921 6.46505L10.0805 10.7625C10.044 10.8461 10.0805 11.5765 10.519 11.5765C10.8596 11.5765 11.3128 11.4446 11.3951 11.1434L13.0226 6.70656C13.0364 6.67065 13.0607 6.63974 13.0923 6.61786C13.1239 6.59598 13.1614 6.58415 13.1999 6.58391C13.3032 6.58391 13.3868 6.66288 13.3868 6.762L13.3754 6.82541L10.9571 13.6508C10.952 13.671 10.9571 14.1548 10.9571 14.1754C10.9571 14.3207 11.3082 14.7004 11.4602 14.7004H13.0201V19.9903C13.0201 20.4271 13.4048 20.7904 13.8601 20.7904C14.3154 20.7904 14.7001 20.4267 14.7001 19.9903V14.4862C14.7001 14.3674 15.5401 14.3711 15.5401 14.49V19.95C15.5401 20.3868 15.9253 20.79 16.3801 20.79C16.8362 20.79 17.2201 20.3864 17.2201 19.95V14.7H18.8451C18.9971 14.7 19.2836 14.3203 19.2836 14.175C19.2836 14.1414 19.2958 13.679 19.2836 13.65Z" fill="#20463C"/>
</g>
<defs>
<clipPath id="clip0_686_42">
<rect width="21" height="21" fill="white"/>
</clipPath>
</defs>
</svg>
