<svg width="26" height="24" viewBox="0 0 26 24" fill="none" xmlns="http://www.w3.org/2000/svg">
<path fill-rule="evenodd" clip-rule="evenodd" d="M4.66675 8C4.66675 4.96245 7.12914 2.5 10.1667 2.5C13.2042 2.5 15.6666 4.96245 15.6666 8C15.6666 9.88949 14.7138 11.5564 13.2625 12.5466C16.627 13.7791 19.0505 16.963 19.1625 20.7277C19.1749 21.1417 18.8492 21.4873 18.4352 21.4997C18.0211 21.512 17.6755 21.1863 17.6632 20.7723C17.5431 16.7357 14.2326 13.5 10.1666 13.5C6.1006 13.5 2.7901 16.7357 2.66996 20.7723C2.65764 21.1863 2.31201 21.512 1.89798 21.4997C1.48395 21.4873 1.1583 21.1417 1.17063 20.7277C1.28267 16.9629 3.70626 13.7791 7.07081 12.5466C5.61951 11.5564 4.66675 9.88946 4.66675 8ZM10.1667 4C7.95759 4 6.16675 5.79085 6.16675 8C6.16675 10.2092 7.95759 12 10.1667 12C12.3758 12 14.1666 10.2092 14.1666 8C14.1666 5.79085 12.3758 4 10.1667 4Z" fill="#199675"/>
<path d="M18.4567 8C18.309 8 18.1642 8.01051 18.0229 8.03072C17.6129 8.08936 17.2329 7.8045 17.1743 7.39446C17.1156 6.98442 17.4005 6.60447 17.8105 6.54583C18.0219 6.51559 18.2377 6.5 18.4567 6.5C20.9585 6.5 22.9866 8.52816 22.9866 11.03C22.9866 12.5058 22.2808 13.8159 21.1903 14.6424C23.5217 15.6875 25.1466 18.0282 25.1466 20.75C25.1466 21.1642 24.8108 21.5 24.3966 21.5C23.9824 21.5 23.6466 21.1642 23.6466 20.75C23.6466 18.4041 22.0896 16.4199 19.951 15.7782L19.4166 15.6178V13.9418L19.8269 13.7334C20.8133 13.2321 21.4866 12.209 21.4866 11.03C21.4866 9.35657 20.13 8 18.4567 8Z" fill="#199675"/>
<path fill-rule="evenodd" clip-rule="evenodd" d="M4.66675 8C4.66675 4.96245 7.12914 2.5 10.1667 2.5C13.2042 2.5 15.6666 4.96245 15.6666 8C15.6666 9.88949 14.7138 11.5564 13.2625 12.5466C16.627 13.7791 19.0505 16.963 19.1625 20.7277C19.1749 21.1417 18.8492 21.4873 18.4352 21.4997C18.0211 21.512 17.6755 21.1863 17.6632 20.7723C17.5431 16.7357 14.2326 13.5 10.1666 13.5C6.1006 13.5 2.7901 16.7357 2.66996 20.7723C2.65764 21.1863 2.31201 21.512 1.89798 21.4997C1.48395 21.4873 1.1583 21.1417 1.17063 20.7277C1.28267 16.9629 3.70626 13.7791 7.07081 12.5466C5.61951 11.5564 4.66675 9.88946 4.66675 8ZM10.1667 4C7.95759 4 6.16675 5.79085 6.16675 8C6.16675 10.2092 7.95759 12 10.1667 12C12.3758 12 14.1666 10.2092 14.1666 8C14.1666 5.79085 12.3758 4 10.1667 4Z" stroke="#199675" stroke-linecap="round"/>
<path d="M18.4567 8C18.309 8 18.1642 8.01051 18.0229 8.03072C17.6129 8.08936 17.2329 7.8045 17.1743 7.39446C17.1156 6.98442 17.4005 6.60447 17.8105 6.54583C18.0219 6.51559 18.2377 6.5 18.4567 6.5C20.9585 6.5 22.9866 8.52816 22.9866 11.03C22.9866 12.5058 22.2808 13.8159 21.1903 14.6424C23.5217 15.6875 25.1466 18.0282 25.1466 20.75C25.1466 21.1642 24.8108 21.5 24.3966 21.5C23.9824 21.5 23.6466 21.1642 23.6466 20.75C23.6466 18.4041 22.0896 16.4199 19.951 15.7782L19.4166 15.6178V13.9418L19.8269 13.7334C20.8133 13.2321 21.4866 12.209 21.4866 11.03C21.4866 9.35657 20.13 8 18.4567 8Z" stroke="#199675" stroke-linecap="round"/>
</svg>
