<svg width="20" height="20" viewBox="0 0 20 20" fill="none" xmlns="http://www.w3.org/2000/svg">
<path d="M8 2C6.93913 2 5.92172 2.42143 5.17157 3.17157C4.42143 3.92172 4 4.93913 4 6C4 7.06087 4.42143 8.07828 5.17157 8.82843C5.92172 9.57857 6.93913 10 8 10C9.06086 10 10.0783 9.57857 10.8284 8.82843C11.5786 8.07828 12 7.06087 12 6C12 4.93913 11.5786 3.92172 10.8284 3.17157C10.0783 2.42143 9.06086 2 8 2ZM2 6C2 4.4087 2.63214 2.88258 3.75736 1.75736C4.88258 0.632141 6.4087 0 8 0C9.5913 0 11.1174 0.632141 12.2426 1.75736C13.3679 2.88258 14 4.4087 14 6C14 7.5913 13.3679 9.11742 12.2426 10.2426C11.1174 11.3679 9.5913 12 8 12C6.4087 12 4.88258 11.3679 3.75736 10.2426C2.63214 9.11742 2 7.5913 2 6ZM19.664 9.253C19.862 9.42918 19.9819 9.67675 19.9975 9.94132C20.0131 10.2059 19.923 10.4658 19.747 10.664L17.081 13.664C16.9872 13.7696 16.8721 13.8541 16.7432 13.912C16.6144 13.9698 16.4747 13.9997 16.3335 13.9997C16.1923 13.9997 16.0526 13.9698 15.9238 13.912C15.7949 13.8541 15.6798 13.7696 15.586 13.664L14.253 12.164C14.0871 11.9645 14.0053 11.7083 14.0248 11.4495C14.0443 11.1907 14.1637 10.9497 14.3576 10.7773C14.5516 10.6049 14.8049 10.5147 15.0642 10.5256C15.3234 10.5366 15.5683 10.6479 15.747 10.836L16.333 11.495L18.253 9.335C18.4293 9.13716 18.677 9.01739 18.9415 9.00202C19.2061 8.98664 19.4659 9.07691 19.664 9.253ZM4.5 16C3.24 16 2 17.213 2 19C2 19.2652 1.89464 19.5196 1.70711 19.7071C1.51957 19.8946 1.26522 20 1 20C0.734783 20 0.48043 19.8946 0.292893 19.7071C0.105357 19.5196 0 19.2652 0 19C0 16.368 1.893 14 4.5 14H11.5C14.107 14 16 16.368 16 19C16 19.2652 15.8946 19.5196 15.7071 19.7071C15.5196 19.8946 15.2652 20 15 20C14.7348 20 14.4804 19.8946 14.2929 19.7071C14.1054 19.5196 14 19.2652 14 19C14 17.213 12.76 16 11.5 16H4.5Z" fill="#20463C" fill-opacity="0.4"/>
</svg>
